<svg width="1024" height="1024" viewBox="0 0 1024 1024" fill="none" xmlns="http://www.w3.org/2000/svg">
<circle cx="512" cy="287" r="225" fill="white" style="fill:white;fill-opacity:1;"/>
<g clip-path="url(#clip0_1_4)">
<path d="M359 265.877C361.81 268.564 365.79 268.564 368.599 265.643C405.591 226.499 454.757 205.701 509.776 205.701C565.029 205.701 614.546 226.499 651.186 265.76C653.878 268.447 657.742 268.331 660.552 265.526L680.686 245.429C683.261 242.858 683.145 239.703 681.154 237.133C645.801 193.782 578.959 162.117 509.776 162.117C440.592 162.117 373.633 193.665 338.398 237.133C336.407 239.703 336.525 242.858 338.866 245.429L359 265.877Z" fill="#6BBE52" style="fill:#6BBE52;fill:color(display-p3 0.4211 0.7452 0.3224);fill-opacity:1;"/>
<path d="M421.745 328.857C424.789 331.779 428.535 331.428 431.579 328.273C449.84 308.058 479.691 293.687 509.776 293.803C540.095 293.687 569.946 308.409 588.558 328.624C591.25 331.662 594.763 331.544 597.806 328.74L620.516 306.189C622.974 303.968 623.092 300.697 620.985 298.127C598.391 270.434 556.132 250.102 509.776 250.102C463.42 250.102 421.277 270.434 398.567 298.127C396.46 300.697 396.46 303.735 399.036 306.189L421.745 328.857Z" fill="#6BBE52" style="fill:#6BBE52;fill:color(display-p3 0.4211 0.7452 0.3224);fill-opacity:1;"/>
<path d="M509.776 411C512.82 411 515.512 409.599 521.248 403.99L557.772 369.053C559.995 366.949 560.464 363.911 558.474 361.224C548.991 348.955 530.379 338.205 509.776 338.205C488.704 338.205 470.092 349.305 460.61 361.925C459.088 364.379 459.674 366.949 461.897 369.053L498.304 403.99C504.039 409.482 506.733 411 509.776 411Z" fill="#6BBE52" style="fill:#6BBE52;fill:color(display-p3 0.4211 0.7452 0.3224);fill-opacity:1;"/>
</g>
<defs>
<clipPath id="clip0_1_4">
<rect width="350" height="249" fill="white" style="fill:white;fill-opacity:1;" transform="translate(337 162)"/>
</clipPath>
</defs>
</svg>
