<svg width="1024" height="1024" viewBox="0 0 1024 1024" fill="none" xmlns="http://www.w3.org/2000/svg">
<circle cx="225" cy="225" r="225" transform="matrix(-1 0 0 1 512 492)" fill="white" style="fill:white;fill-opacity:1;"/>
<g clip-path="url(#clip0_1_8)">
<path d="M392.907 757.687H380.62C381.282 752.297 381.754 746.339 380.998 740.947H391.49C422.208 740.947 444.325 719.195 444.325 688.364C444.325 657.722 422.208 635.875 391.49 635.875H284.212C253.493 635.875 231.376 657.722 231.376 688.364C231.376 719.195 253.399 740.947 284.212 740.947H327.784C329.202 745.014 328.73 752.958 325.705 757.687H282.794C242.529 757.687 213.701 729.314 213.701 688.364C213.701 647.507 242.529 619.135 282.794 619.135H392.907C433.078 619.135 462 647.507 462 688.364C462 729.314 433.078 757.687 392.907 757.687ZM294.703 815H184.59C144.325 815 115.497 786.627 115.497 745.676C115.497 704.725 144.325 676.353 184.59 676.353H196.877C196.216 681.838 195.743 687.796 196.405 693.093H186.008C155.195 693.093 133.172 714.845 133.172 745.676C133.172 776.319 155.289 798.26 186.008 798.26H293.286C324.004 798.26 346.121 776.319 346.121 745.676C346.121 714.845 324.099 693.093 293.286 693.093H249.618C248.201 689.026 248.673 681.176 251.792 676.353H294.703C334.968 676.353 363.796 704.725 363.796 745.676C363.796 786.627 334.968 815 294.703 815Z" fill="#6BBE52" style="fill:#6BBE52;fill:color(display-p3 0.4211 0.7452 0.3224);fill-opacity:1;"/>
</g>
<defs>
<clipPath id="clip0_1_8">
<rect width="350" height="197" fill="white" style="fill:white;fill-opacity:1;" transform="matrix(-1 0 0 1 462 618)"/>
</clipPath>
</defs>
</svg>
