<svg width="1024" height="1024" viewBox="0 0 1024 1024" fill="none" xmlns="http://www.w3.org/2000/svg">
<circle cx="287" cy="715" r="225" fill="white" style="fill:white;fill-opacity:1;"/>
<g clip-path="url(#clip0_1_12)">
<path d="M150.013 649.485C190.104 689.121 245.092 711.909 303.714 711.666C348.529 711.424 391.043 697.242 426.167 671.667L418.779 656.273C386.077 681 345.985 694.818 303.714 695.06C247.272 695.545 194.585 672.394 157.401 632.636L150.013 649.485ZM134.631 736.757C215.902 805.728 331.208 818.575 424.592 770.819V751.788C333.025 803.06 217.235 790.091 138.264 717.849L134.631 736.757ZM210.815 844.03L230.558 849.122C221.595 827.302 216.629 804.393 215.781 780.636C208.029 699.424 241.459 621.242 302.503 569.849L284.82 563.424C224.26 617.97 191.799 698.091 199.309 781.242C199.914 802.576 203.79 823.667 210.815 844.03ZM314.009 860.151L329.634 853.606C301.05 812.515 285.183 763.545 285.183 712.273C285.183 662.939 299.596 616.151 326 576.515L310.013 570.576C283.246 612.515 268.589 661.364 268.589 712.273C268.589 765.849 284.698 816.879 314.009 860.151ZM406.666 801.606L417.325 788.758C365.365 759.182 332.298 704.636 330.966 643.182C330.361 620.636 334.237 598.454 342.231 577.97L326.364 573.364C317.885 595.424 313.889 619.061 314.373 643.424C315.705 709.364 351.194 768.757 406.666 801.606ZM216.145 710.091C228.983 710.091 239.4 699.546 239.4 686.576C239.4 673.848 228.983 663.303 216.145 663.303C203.185 663.303 192.647 673.848 192.647 686.576C192.647 699.546 203.185 710.091 216.145 710.091ZM335.811 723.666C348.165 723.666 358.339 713.484 358.339 700.879C358.339 688.393 348.165 678.212 335.811 678.212C323.215 678.212 312.919 688.393 312.919 700.879C312.919 713.484 323.215 723.666 335.811 723.666ZM290.149 813.849C302.988 813.849 313.404 803.546 313.404 790.576C313.404 777.605 302.988 767.303 290.149 767.303C277.189 767.303 266.894 777.605 266.894 790.576C266.894 803.546 277.189 813.849 290.149 813.849ZM284.698 872.758C371.784 872.758 442.519 802.091 442.519 714.939C442.519 627.788 371.784 557 284.698 557C197.613 557 127 627.788 127 714.939C127 802.091 197.613 872.758 284.698 872.758ZM284.698 854.333C207.787 854.333 145.41 791.909 145.41 714.939C145.41 637.848 207.787 575.424 284.698 575.424C361.731 575.424 424.108 637.848 424.108 714.939C424.108 791.909 361.731 854.333 284.698 854.333Z" fill="#6BBE52" style="fill:#6BBE52;fill:color(display-p3 0.4211 0.7452 0.3224);fill-opacity:1;"/>
</g>
<defs>
<clipPath id="clip0_1_12">
<rect width="320" height="316" fill="white" style="fill:white;fill-opacity:1;" transform="translate(127 557)"/>
</clipPath>
</defs>
</svg>
